<svg id="Layer_1" data-name="Layer 1" xmlns="http://www.w3.org/2000/svg" xmlns:xlink="http://www.w3.org/1999/xlink" viewBox="0 0 800 800"><defs><style>.cls-1{fill:url(#linear-gradient);}.cls-2{fill:url(#linear-gradient-2);}.cls-3{fill:url(#linear-gradient-3);}.cls-4{fill:url(#linear-gradient-4);}.cls-5{fill:url(#linear-gradient-6);}.cls-6{fill:url(#linear-gradient-7);}.cls-7{fill:url(#linear-gradient-8);}.cls-8{fill:url(#linear-gradient-9);}.cls-9{fill:url(#linear-gradient-10);}.cls-10{fill:url(#linear-gradient-11);}.cls-11{fill:url(#linear-gradient-12);}.cls-12{font-size:16.25px;fill:#231f20;font-family:Montserrat-Bold, Montserrat;font-weight:700;letter-spacing:0.72em;}.cls-13{letter-spacing:0.71em;}.cls-14{letter-spacing:0.72em;}.cls-15{letter-spacing:0.69em;}.cls-16{letter-spacing:0.71em;}.cls-17{letter-spacing:0.72em;}</style><linearGradient id="linear-gradient" x1="82.71" y1="400" x2="203.38" y2="400" gradientUnits="userSpaceOnUse"><stop offset="0" stop-color="#9e1f63"/><stop offset="0.1" stop-color="#ac255b"/><stop offset="0.31" stop-color="#c7304d"/><stop offset="0.53" stop-color="#da3842"/><stop offset="0.76" stop-color="#e53c3c"/><stop offset="1" stop-color="#e93e3a"/></linearGradient><linearGradient id="linear-gradient-2" x1="69.84" y1="400" x2="216.25" y2="400" xlink:href="#linear-gradient"/><linearGradient id="linear-gradient-3" x1="65.31" y1="400" x2="220.78" y2="400" xlink:href="#linear-gradient"/><linearGradient id="linear-gradient-4" x1="84.97" y1="400" x2="201.11" y2="400" xlink:href="#linear-gradient"/><linearGradient id="linear-gradient-6" x1="103.23" y1="400.55" x2="200.21" y2="400.55" gradientUnits="userSpaceOnUse"><stop offset="0" stop-color="#006d9c"/><stop offset="0" stop-color="#006794"/><stop offset="0" stop-color="#003b55"/><stop offset="0" stop-color="#001b27"/><stop offset="0" stop-color="#00070b"/><stop offset="0"/><stop offset="0" stop-color="#002f16"/><stop offset="0" stop-color="#007537"/><stop offset="0.09" stop-color="#0a7c38"/><stop offset="0.71" stop-color="#4fab41"/><stop offset="1" stop-color="#6abd45"/></linearGradient><linearGradient id="linear-gradient-7" x1="208.54" y1="400.55" x2="295.02" y2="400.55" xlink:href="#linear-gradient"/><linearGradient id="linear-gradient-8" x1="295.91" y1="400.55" x2="384.56" y2="400.55" xlink:href="#linear-gradient"/><linearGradient id="linear-gradient-9" x1="364.73" y1="400" x2="475.1" y2="400" xlink:href="#linear-gradient"/><linearGradient id="linear-gradient-10" x1="482.24" y1="400.55" x2="570" y2="400.55" xlink:href="#linear-gradient"/><linearGradient id="linear-gradient-11" x1="580.71" y1="400.55" x2="601.24" y2="400.55" xlink:href="#linear-gradient"/><linearGradient id="linear-gradient-12" x1="608.87" y1="400" x2="719.25" y2="400" xlink:href="#linear-gradient"/></defs><title>Octapia Logo 1</title><polygon class="cls-1" points="198.85 369.47 198.85 367.78 143.05 335.56 87.23 367.78 87.23 432.22 143.05 464.44 198.85 432.22 198.85 430.54 203.38 430.54 203.38 434.84 143.05 469.68 82.71 434.84 82.71 365.17 143.05 330.33 203.38 365.17 203.38 369.47 198.85 369.47"/><polygon class="cls-2" points="211.72 369.47 211.72 360.35 143.05 320.7 74.36 360.35 74.36 439.66 143.05 479.3 211.72 439.66 211.72 430.54 216.25 430.54 216.25 442.27 143.05 484.54 69.84 442.27 69.84 357.73 143.05 315.47 216.25 357.73 216.25 369.47 211.72 369.47"/><path class="cls-3" d="M220.78,369.47V355.12l-77.73-44.88L65.31,355.12v89.76l77.74,44.88,77.73-44.88V430.54h-9.06v9.12L143.05,479.3,74.36,439.66V360.35l68.69-39.65,68.67,39.65v9.12Z"/><polygon class="cls-4" points="198.85 369.47 198.85 367.78 143.05 335.56 87.23 367.78 87.23 432.22 143.05 464.44 198.85 432.22 198.85 430.54 201.11 430.54 201.11 433.52 143.05 467.06 84.97 433.52 84.97 366.47 143.05 332.94 201.11 366.47 201.11 369.47 198.85 369.47"/><path class="cls-1" d="M203.38,369.47v-4.3l-60.33-34.84L82.71,365.17v69.67l60.34,34.83,60.33-34.83v-4.3h-4.53v1.68l-55.8,32.22L87.24,432.22V367.78l55.81-32.22,55.8,32.22v1.69Z"/><path class="cls-5" d="M151.72,366.28q24.19,0,36.35,8.23t12.14,26q0,17.85-12.1,26.08t-36.39,8.23q-24.39,0-36.44-8.23t-12-26.08q0-17.76,12.1-26T151.72,366.28Zm0,51.27a112.08,112.08,0,0,0,13.09-.64,23.24,23.24,0,0,0,8.68-2.53,11.12,11.12,0,0,0,4.81-5.21,26,26,0,0,0,0-17.35,10.87,10.87,0,0,0-4.81-5.16,24.05,24.05,0,0,0-8.68-2.48,112.08,112.08,0,0,0-13.09-.64,112.08,112.08,0,0,0-13.09.64,24.05,24.05,0,0,0-8.68,2.48,10.92,10.92,0,0,0-4.81,5.16,26.16,26.16,0,0,0,0,17.35,11.17,11.17,0,0,0,4.81,5.21,23.24,23.24,0,0,0,8.68,2.53A112.08,112.08,0,0,0,151.72,417.55Z"/><path class="cls-6" d="M295,416.66l-13.19,17.06H248.51a47.85,47.85,0,0,1-16-2.58,39.41,39.41,0,0,1-12.64-7.09,32.73,32.73,0,0,1-8.33-10.71,30.18,30.18,0,0,1-3-13.44,29,29,0,0,1,3-13.24,31.17,31.17,0,0,1,8.33-10.31,38,38,0,0,1,12.64-6.65,52.64,52.64,0,0,1,16-2.33H295l-13.19,17.26H248.51a24.43,24.43,0,0,0-7.74,1.19,18.91,18.91,0,0,0-6.15,3.32,15.61,15.61,0,0,0-4.06,5.11,14.61,14.61,0,0,0,4,18.05,19.6,19.6,0,0,0,6.2,3.22,25.32,25.32,0,0,0,7.74,1.14Z"/><path class="cls-7" d="M384.56,367.37l-13.29,17.26h-23.7v49.09H327.05V384.63H295.91l13.29-17.26Z"/><path class="cls-8" d="M398,433.72l12.4-17.06H433.2c2.15,0,4,.07,5.61.2-.93-1.19-2-2.69-3.23-4.51s-2.39-3.52-3.52-5.11l-11.9-17.55-31.13,44h-24.3l42.54-60a23.05,23.05,0,0,1,5.26-5.16,15.25,15.25,0,0,1,15.81-.14,20.27,20.27,0,0,1,5.31,5.3l41.45,60Z"/><path class="cls-9" d="M570,392.27a22.73,22.73,0,0,1-2.18,10.06,21,21,0,0,1-6.39,7.69,32.18,32.18,0,0,1-10.27,5,48.72,48.72,0,0,1-13.78,1.79H502.67v17H482.24V399.8h57.12c3.17,0,5.64-.69,7.39-2.08a6.73,6.73,0,0,0,2.63-5.55,6.61,6.61,0,0,0-2.63-5.51c-1.75-1.35-4.22-2-7.39-2H482.24l13.59-17.26h41.65a47.59,47.59,0,0,1,13.78,1.84,30.71,30.71,0,0,1,10.22,5.11,21.88,21.88,0,0,1,6.34,7.83A23.06,23.06,0,0,1,570,392.27Z"/><path class="cls-10" d="M601.24,433.72H580.71V367.37h20.53Z"/><path class="cls-11" d="M642.09,433.72l12.4-17.06h22.86c2.15,0,4,.07,5.6.2-.92-1.19-2-2.69-3.22-4.51s-2.4-3.52-3.52-5.11l-11.9-17.55-31.14,44h-24.3l42.55-60a23,23,0,0,1,5.25-5.16,15.26,15.26,0,0,1,15.82-.14,20.43,20.43,0,0,1,5.31,5.3l41.45,60Z"/><text class="cls-12" transform="translate(229.76 458.94)"><tspan xml:space="preserve">TIMED  S</tspan><tspan class="cls-13" x="168.34" y="0">P</tspan><tspan class="cls-14" x="191.77" y="0">EE</tspan><tspan class="cls-15" x="236.97" y="0">D</tspan><tspan x="261.6" y="0" xml:space="preserve">Y  </tspan><tspan class="cls-16" x="316.87" y="0">P</tspan><tspan class="cls-17" x="340.29" y="0">ROMISED</tspan></text></svg>